<svg width="166" height="59" viewBox="0 0 166 59" fill="none" xmlns="http://www.w3.org/2000/svg">
<g clip-path="url(#clip0_1_134)">
<path d="M26.1991 -5.20488e-05C26.2725 0.0920432 26.3665 0.165461 26.4733 0.214257C27.0159 0.488292 27.5566 0.766425 28.0957 1.04866C28.899 1.46849 29.6989 1.89535 30.5005 2.32046C30.8288 2.49612 31.1588 2.67178 31.4854 2.84745C32.2713 3.27782 33.0571 3.70117 33.8413 4.14384C35.0207 4.8137 36.1936 5.49235 37.3602 6.17978C38.1752 6.65524 38.9785 7.14241 39.7702 7.6413C40.839 8.30648 41.9031 8.98043 42.9626 9.66318C43.7077 10.1422 44.4458 10.6328 45.177 11.1352C46.382 11.9644 47.587 12.7935 48.7763 13.649C49.7455 14.3516 50.6973 15.0824 51.6491 15.8008C51.7591 15.8834 51.8743 15.9607 51.9844 16.0468C52.0944 16.1329 52.1957 16.2224 52.3127 16.3261C52.2393 16.5017 52.173 16.6774 52.1049 16.8373C51.4517 18.4182 50.7829 19.9781 50.1524 21.5591C49.2338 23.8585 48.3868 26.1825 47.6586 28.5505C47.1626 30.1596 46.7452 31.7897 46.368 33.4304C45.9436 35.2806 45.3339 37.0827 44.5483 38.8092C43.9501 40.1157 43.2493 41.3722 42.4526 42.5667C42.037 43.1903 41.5795 43.784 41.1114 44.3672C40.952 44.5832 40.7578 44.7708 40.5369 44.9223C40.4383 44.9857 40.3328 45.0375 40.2225 45.0769C40.0812 45.1305 39.9247 45.1274 39.7856 45.0682C39.6465 45.009 39.5353 44.8983 39.4751 44.7589C39.4268 44.6519 39.3944 44.5382 39.379 44.4217C39.3573 44.2622 39.3468 44.1013 39.3476 43.9403C39.3348 42.138 39.3255 40.3351 39.3196 38.5317C39.3196 37.5128 39.3196 36.494 39.3057 35.4734C39.2882 32.6206 39.2696 29.7667 39.2498 26.9116C39.2498 26.6112 39.2498 26.3108 39.2411 26.0104C39.2553 25.896 39.2287 25.7802 39.166 25.6837C39.1159 25.7144 39.0701 25.7516 39.0298 25.7943C38.5879 26.4267 38.1566 27.0626 37.7095 27.6932C37.1751 28.4556 36.639 29.2168 36.1011 29.9769C35.7815 30.4318 35.4514 30.8798 35.1406 31.3418C34.5318 32.2414 34.15 33.2766 34.0281 34.3579C34.006 34.5714 33.9978 34.7862 34.0037 35.0008C34.0107 37.5866 34.02 40.1724 34.0316 42.7581C34.0433 45.6987 34.0555 48.6387 34.0683 51.5782C34.0672 51.8248 34.0467 52.0709 34.0072 52.3142C33.9573 52.6345 33.8131 52.9325 33.5933 53.1697C33.4708 53.3062 33.3131 53.406 33.1378 53.4581C32.9624 53.5102 32.7762 53.5125 32.5996 53.4648C32.4254 53.4318 32.2649 53.3473 32.1386 53.2221C32.0124 53.097 31.926 52.9369 31.8906 52.7621C31.8579 52.6374 31.8374 52.5097 31.8294 52.381C31.8155 52.1561 31.8085 51.9313 31.8085 51.7064C31.8085 48.637 31.8114 45.5682 31.8172 42.4999L31.8277 21.6083C31.8277 21.1147 31.8277 20.621 31.8277 20.1274C31.8464 20.021 31.8233 19.9114 31.7631 19.8218C31.6286 19.8587 31.5727 19.9693 31.5029 20.0589C31.2165 20.4325 30.9312 20.8078 30.6471 21.1849L29.3147 22.9539C28.562 23.9551 27.8215 24.9652 27.123 26.0034C26.7381 26.5494 26.5015 27.187 26.4366 27.8531C26.4305 27.9596 26.4305 28.0663 26.4366 28.1728C26.4454 28.4627 26.4663 28.7525 26.4663 29.0406C26.4663 34.3316 26.4605 39.622 26.4489 44.9118C26.4489 47.4436 26.446 49.9755 26.4401 52.5074C26.4401 53.9877 26.4401 55.4685 26.4401 56.95C26.4415 57.1848 26.4281 57.4195 26.4 57.6526C26.3552 58.04 26.186 58.402 25.918 58.6838C25.8271 58.7776 25.7264 58.8612 25.6176 58.9332C25.5542 58.9744 25.4818 58.9994 25.4067 59.0062C25.3315 59.0129 25.2558 59.0011 25.1862 58.9718C24.795 58.8102 24.4877 58.5538 24.4108 58.1041C24.3808 57.9135 24.3657 57.7208 24.3654 57.5279C24.3654 55.4199 24.3654 53.3061 24.3654 51.1865C24.3654 49.342 24.3654 47.4963 24.3654 45.6495V23.0206C24.3654 21.4642 24.3654 19.9079 24.3654 18.3532C24.3654 17.2044 24.4039 16.0573 24.4091 14.9102C24.4091 13.5682 24.4091 12.2279 24.3986 10.8858C24.3943 10.5535 24.3733 10.2217 24.3357 9.89154C24.3133 9.74346 24.2722 9.59884 24.2135 9.46117C24.2039 9.44188 24.1901 9.42501 24.1732 9.4118C24.1563 9.39858 24.1366 9.38935 24.1157 9.3848C24.0947 9.38025 24.073 9.38049 24.0522 9.3855C24.0313 9.39051 24.0118 9.40016 23.9952 9.41374C23.931 9.46591 23.8724 9.5248 23.8206 9.5894C23.2617 10.2921 22.7064 10.9947 22.1458 11.6974C21.6813 12.2841 21.208 12.8655 20.7487 13.454C19.9995 14.4026 19.2486 15.3512 18.5063 16.3068C17.937 17.041 17.3677 17.7806 16.8211 18.5342C16.0352 19.6163 15.2616 20.7077 14.5002 21.8085C14.0077 22.5217 13.5379 23.2507 13.0838 23.9903C12.7346 24.5647 12.4237 25.1655 12.0954 25.7469C11.9906 25.9331 11.8928 26.1246 11.7758 26.3038C11.5171 26.7158 11.3536 27.1811 11.2973 27.6651C11.2246 28.13 11.2123 28.6024 11.2606 29.0704C11.2781 29.2308 11.2851 29.3922 11.2816 29.5535C11.2734 30.6485 11.2641 31.7423 11.2536 32.8349C11.2432 33.9521 11.2379 35.0676 11.2257 36.1831C11.2117 37.4396 11.196 38.695 11.1786 39.9493C11.1704 40.55 11.1611 41.1508 11.1506 41.7516C11.1478 42.0844 11.1062 42.4157 11.0266 42.7388C10.9895 42.8836 10.938 43.0242 10.8729 43.1586C10.7542 43.4011 10.6284 43.4169 10.4294 43.2254C10.3596 43.159 10.2937 43.0886 10.232 43.0146C9.90544 42.6035 9.56839 42.2013 9.25928 41.785C8.73512 41.0674 8.26464 40.3118 7.85171 39.5242C7.11086 38.1558 6.5809 36.6821 6.27997 35.1537C5.9401 33.3955 5.48861 31.6611 4.92827 29.9611C4.25068 27.8531 3.54864 25.768 2.79769 23.6916C2.22488 22.1107 1.63461 20.5297 1.05132 18.9593C0.789363 18.2566 0.527406 17.554 0.253225 16.8513C0.236224 16.7809 0.204962 16.7147 0.161391 16.657C0.11782 16.5993 0.0628778 16.5512 0 16.5158C0.396427 16.3296 0.668862 16.0222 0.986703 15.7745C1.51062 15.3599 2.03453 14.9208 2.55844 14.508C3.3513 13.892 4.15055 13.2842 4.95621 12.6846C5.48013 12.2893 6.02674 11.9029 6.57336 11.5305C7.65728 10.7892 8.74643 10.0549 9.84083 9.32766C10.5883 8.83229 11.345 8.34805 12.1111 7.87493C13.0251 7.30227 13.9436 6.7378 14.8669 6.18154C15.534 5.77927 16.2081 5.38929 16.8857 5.00459C17.9533 4.40031 19.0233 3.79954 20.0955 3.20228C20.4309 3.01374 20.7691 2.83105 21.1102 2.65422C21.9415 2.21857 22.7745 1.7882 23.6093 1.35607C24.3672 0.964339 25.1251 0.574365 25.8795 0.179122C25.9706 0.12346 26.0576 0.0612301 26.1398 -0.00708008L26.1991 -5.20488e-05Z" fill="#059CAE"/>
<path d="M165.998 18.4727C165.852 18.8469 165.724 19.2298 165.579 19.6075C165.434 19.9852 165.301 20.3734 165.158 20.7546C165.109 20.8863 165.048 21.011 164.998 21.1287C164.941 21.1495 164.883 21.1643 164.823 21.1726C164.098 21.1726 163.373 21.1832 162.65 21.1481C161.823 21.0872 161.046 20.7212 160.47 20.1202C159.894 19.5193 159.558 18.7256 159.528 17.8913C159.462 16.1153 160.244 14.8277 161.786 13.9845C162.427 13.6407 163.141 13.4598 163.868 13.4575C164.434 13.4487 164.999 13.4575 165.565 13.4575C165.668 13.4575 165.771 13.4733 165.88 13.4839C165.939 13.6947 165.925 13.9194 165.841 14.1215C165.565 14.9243 165.277 15.7253 164.987 16.5457C164.861 16.5632 164.743 16.5861 164.622 16.5949C164.289 16.6195 163.95 16.6177 163.618 16.6616C163.122 16.7266 162.698 16.9163 162.495 17.4626C162.659 17.814 163 17.9633 163.358 18.0494C163.6 18.0972 163.847 18.1196 164.095 18.1161C164.537 18.1249 164.978 18.1161 165.42 18.1161C165.614 18.1161 165.808 18.1389 166 18.1512L165.998 18.4727Z" fill="#059CAE"/>
<path d="M69.3521 48.7009C69.1751 48.6271 68.9944 48.5627 68.8107 48.5077C68.3249 48.3918 67.8926 48.1133 67.5848 47.7178C67.277 47.3224 67.112 46.8334 67.1167 46.3312C67.0898 45.9582 67.1264 45.5834 67.225 45.2228C67.3558 44.7564 67.6522 44.3544 68.058 44.0933C68.4554 43.8221 68.9204 43.6686 69.4002 43.6503C69.88 43.632 70.3553 43.7495 70.7719 43.9896C71.0373 44.1313 71.2677 44.3312 71.446 44.5744C71.6243 44.8176 71.7461 45.098 71.8023 45.3949C71.9079 45.8645 71.9079 46.3518 71.8023 46.8213C71.7289 47.2076 71.5507 47.5659 71.2875 47.8567C71.0243 48.1475 70.6863 48.3594 70.3109 48.469C70.0978 48.5411 69.8586 48.5393 69.6734 48.6939L69.3521 48.7009Z" fill="#059CAE"/>
<path d="M150.917 36.5203C150.677 35.0096 150.742 33.534 150.731 32.0549C150.721 30.5758 150.731 29.0686 150.731 27.5685C150.731 27.3752 150.742 27.182 150.747 26.973C151.365 26.7868 151.989 26.8201 152.595 26.7306C153.201 26.641 153.828 26.6111 154.443 26.5549C155.057 26.4987 155.665 26.3933 156.262 26.395C156.393 26.5918 156.346 26.7745 156.348 26.9484C156.348 28.2834 156.348 29.6185 156.348 30.9535C156.348 32.7874 156.337 34.6214 156.348 36.4535C156.348 37.5075 156.404 38.5615 156.439 39.6032C156.439 39.7788 156.482 39.9545 156.501 40.1301C156.521 40.3058 156.538 40.5166 156.556 40.7204C156.215 40.9382 155.845 40.9962 155.494 41.0875C154.563 41.3088 153.61 41.4214 152.654 41.423C152.176 41.4336 151.699 41.423 151.22 41.423H110.317C110.256 41.611 110.195 41.7744 110.153 41.9395C109.85 43.1505 109.32 44.2922 108.591 45.3034C107.928 46.2311 107.062 46.9941 106.061 47.5343C105.025 48.0811 103.89 48.4093 102.724 48.4987C100.958 48.6714 99.1766 48.485 97.4845 47.9507C96.8706 47.7552 96.2698 47.5205 95.6857 47.248C95.7852 46.707 96.0158 46.2274 96.1817 45.7285C96.3476 45.2296 96.517 44.7536 96.6881 44.267C96.8593 43.7804 97.0479 43.2675 97.212 42.7827C97.285 42.7411 97.3674 42.7192 97.4513 42.7192C97.5351 42.7192 97.6176 42.7411 97.6905 42.7827C98.6218 43.2161 99.6201 43.4858 100.642 43.5802C101.01 43.6241 101.379 43.6873 101.749 43.7066C102.564 43.7385 103.377 43.6303 104.156 43.3869C104.284 43.3589 104.402 43.2943 104.495 43.2009C104.587 43.1075 104.652 42.9891 104.68 42.8599C104.825 42.4107 104.912 41.9441 104.936 41.4722C104.838 41.4521 104.739 41.4386 104.639 41.4318C104.089 41.4318 103.541 41.4195 102.993 41.4318C101.876 41.4396 100.767 41.2524 99.7146 40.8785C98.7514 40.5637 97.8755 40.0251 97.1579 39.3063C96.2465 38.3939 95.6891 37.1841 95.5862 35.8949C95.3763 33.9651 95.8339 32.0215 96.882 30.3914C97.9665 28.691 99.4649 27.5175 101.423 27.0397C102.548 26.7585 103.733 26.8365 104.812 27.2628C105.687 27.6069 106.489 28.1141 107.177 28.7577C108.878 30.3387 109.837 32.3237 110.32 34.5651C110.43 35.0675 110.476 35.584 110.553 36.0934C110.574 36.2304 110.601 36.3674 110.624 36.4974C110.68 36.5206 110.739 36.5371 110.799 36.5466C124.071 36.5466 137.344 36.5466 150.616 36.5466C150.717 36.5454 150.817 36.5366 150.917 36.5203ZM102.458 31.0273C102.41 31.0407 102.364 31.0601 102.32 31.0852C101.492 31.7112 100.931 32.6295 100.748 33.6552C100.63 34.2162 100.7 34.801 100.949 35.317C101.104 35.6696 101.345 35.9766 101.651 36.2087C101.957 36.4409 102.316 36.5905 102.696 36.6432C103.452 36.7627 104.212 36.717 104.966 36.703C104.996 36.703 105.025 36.6713 105.055 36.6538C105.099 34.8163 103.937 32.1287 102.458 31.0273Z" fill="#059CAE"/>
<path d="M56.2071 39.2924L57.344 34.7954C57.4159 34.7496 57.4986 34.7239 57.5837 34.7212C57.6688 34.7184 57.753 34.7386 57.8277 34.7796C58.3714 34.9927 58.9163 35.2006 59.4623 35.4032C60.3594 35.7258 61.2851 35.9611 62.2268 36.1059C62.9254 36.2218 63.6239 36.3202 64.3312 36.3764C65.0892 36.4361 65.8488 36.5064 66.6015 36.5116C70.0524 36.5397 73.5032 36.545 76.954 36.5573C77.092 36.5573 77.23 36.5415 77.3644 36.5345C77.471 36.3834 77.4098 36.2411 77.4011 36.1059C77.3714 35.6281 77.3068 35.1503 77.3033 34.6707C77.2928 32.2114 77.3033 29.7521 77.3033 27.3016C77.3033 27.198 77.3155 27.0926 77.3243 26.9503C78.2464 26.7606 79.1807 26.7307 80.1045 26.6306C81.0283 26.5305 81.926 26.4198 82.8254 26.3706C82.972 26.6078 82.9197 26.8273 82.9197 27.0346C82.9197 29.8815 82.9197 32.729 82.9197 35.5771C82.9197 36.2534 82.9197 36.9297 82.9301 37.606C82.9217 38.514 82.9701 39.4217 83.0751 40.3235C83.1187 40.6538 83.0751 40.7399 82.7625 40.8382C82.0032 41.0781 81.2214 41.2382 80.4293 41.316C79.1422 41.4495 77.8499 41.4197 76.5594 41.4214C74.3467 41.4214 72.134 41.4091 69.9231 41.4214C68.3287 41.4337 66.7377 41.367 65.1468 41.2914C64.4482 41.2581 63.7375 41.1702 63.0372 41.0719C61.9319 40.939 60.8364 40.7342 59.7575 40.4588C58.6188 40.1444 57.4627 39.8756 56.3765 39.3872C56.3328 39.3785 56.2909 39.3451 56.2071 39.2924Z" fill="#059CAE"/>
<path d="M92.2523 41.3985C91.5118 41.4583 87.1407 41.4407 86.7111 41.3757C86.6988 41.2843 86.6796 41.1842 86.6744 41.0823C86.6691 40.9805 86.6744 40.8329 86.6744 40.7082V21.8068C86.6744 21.5943 86.6744 21.3835 86.6744 21.1516C86.8177 21.1147 86.9629 21.0854 87.1092 21.0638C88.0435 20.9794 88.9779 20.9039 89.9034 20.8196C90.45 20.7686 90.9932 20.7054 91.5398 20.6527C91.7511 20.6316 91.9624 20.6158 92.1737 20.6105C92.385 20.6053 92.4916 20.7054 92.4671 20.9408C92.4322 21.2921 92.3763 21.6434 92.3606 21.9948C92.3239 22.8467 92.2837 23.7005 92.282 24.5542C92.275 29.9471 92.275 35.3399 92.282 40.7328C92.3016 40.955 92.2917 41.1789 92.2523 41.3985Z" fill="#059CAE"/>
<path d="M165.729 41.3967C165.097 41.4529 160.632 41.4389 160.19 41.3809C160.178 41.2895 160.158 41.1894 160.153 41.0875C160.148 40.9856 160.153 40.8398 160.153 40.7151C160.153 35.3281 160.153 29.9376 160.153 24.5436C160.129 24.3282 160.145 24.1102 160.2 23.9006C160.265 23.8748 160.333 23.8548 160.401 23.8409C162.207 23.6442 164.014 23.4755 165.848 23.3245C165.873 23.4172 165.891 23.5117 165.902 23.6073C165.905 23.8031 165.896 23.999 165.878 24.194C165.781 25.3465 165.746 26.5035 165.773 27.6598C165.773 32.0174 165.773 36.3757 165.773 40.7344C165.788 40.9562 165.774 41.1789 165.729 41.3967Z" fill="#059CAE"/>
<path d="M19.5507 36.2025C19.5507 34.454 19.5507 32.7062 19.5507 30.9589C19.5409 30.6907 19.5794 30.4229 19.6642 30.1684C19.7069 30.046 19.7619 29.9283 19.8284 29.8171C19.8585 29.7564 19.9021 29.7035 19.9558 29.6625C20.0096 29.6216 20.072 29.5936 20.1382 29.5809C20.2045 29.5681 20.2727 29.5709 20.3377 29.589C20.4027 29.6072 20.4627 29.6401 20.5129 29.6854C20.7165 29.8252 20.8904 30.0043 21.0246 30.2124C21.393 30.7939 21.6314 31.449 21.7232 32.1324C21.7651 32.4503 21.7738 32.7735 21.7843 33.0932C21.7948 33.4129 21.7843 33.7151 21.7843 34.026C21.7843 37.0509 21.789 40.0753 21.7983 43.099C21.7983 43.2483 21.7983 43.3994 21.7983 43.5487C21.7783 43.8167 21.7015 44.0773 21.573 44.3128C21.5433 44.3699 21.5044 44.4216 21.4577 44.4657C21.4002 44.5299 21.3241 44.5744 21.2402 44.5929C21.1563 44.6115 21.0687 44.6033 20.9897 44.5693C20.8122 44.4943 20.6548 44.3781 20.5304 44.2303C20.2737 43.9278 20.0764 43.5791 19.9489 43.2027C19.6934 42.5183 19.5667 41.7922 19.5751 41.0613V36.2025H19.5507Z" fill="#059CAE"/>
<path d="M155.752 45.8656C155.716 46.1813 155.657 46.4942 155.578 46.8018C155.314 47.6134 154.736 48.0877 153.912 48.2704C153.531 48.3573 153.136 48.3573 152.756 48.2704C152.38 48.1986 152.031 48.028 151.743 47.7758C151.455 47.5236 151.238 47.1991 151.116 46.8352C150.91 46.2437 150.89 45.6029 151.058 44.9995C151.139 44.6872 151.292 44.3984 151.504 44.1564C151.716 43.9144 151.982 43.7261 152.28 43.6065C152.672 43.4155 153.108 43.3326 153.542 43.3662C153.976 43.3998 154.393 43.5489 154.752 43.798C155.034 43.9824 155.268 44.2326 155.434 44.5274C155.6 44.8222 155.693 45.1528 155.705 45.4914C155.705 45.6161 155.705 45.7408 155.705 45.8638L155.752 45.8656Z" fill="#059CAE"/>
<path d="M106.239 20.5615C106.326 21.1831 106.339 21.8129 106.277 22.4376C106.206 22.5553 106.075 22.5693 105.963 22.6132C105.01 22.9382 104.054 23.2562 103.101 23.5794C102.015 23.9448 100.927 24.3113 99.8386 24.679C99.6637 24.7657 99.4623 24.7815 99.2762 24.723C99.1968 24.0778 99.1968 23.4253 99.2762 22.7801C99.5592 22.687 99.8595 22.5904 100.149 22.4885L105.521 20.6774C105.67 20.6224 105.823 20.5761 105.977 20.5387C106.065 20.5321 106.154 20.5398 106.239 20.5615Z" fill="#059CAE"/>
</g>
<defs>
<clipPath id="clip0_1_134">
<rect width="166" height="59" fill="white"/>
</clipPath>
</defs>
</svg>
