 <svg width="415" height="184" viewBox="0 0 415 184" fill="none" xmlns="http://www.w3.org/2000/svg">
<path d="M366 24H408L414 63.7681L366 73V24Z" fill="#CF7A13"/>
<g filter="url(#filter0_d_0_1)">
<rect x="20" y="16" width="375" height="144" rx="6" fill="white"/>
</g>
<path d="M193.6 76.24C196.88 76.24 198.72 74.48 198.72 69.48C198.72 64.48 196.88 62.56 193.6 62.56C190.32 62.56 188.48 64.48 188.48 69.48C188.48 74.48 190.32 76.24 193.6 76.24ZM193.62 73.84C192.02 73.84 191.32 72.72 191.32 69.48C191.32 66.04 192.02 64.96 193.62 64.96C195.22 64.96 195.88 66.04 195.88 69.48C195.88 72.72 195.22 73.84 193.62 73.84ZM199.591 78.46H201.751L203.551 73.26H200.591L199.591 78.46ZM210.045 76.24C213.325 76.24 215.165 74.48 215.165 69.48C215.165 64.48 213.325 62.56 210.045 62.56C206.765 62.56 204.925 64.48 204.925 69.48C204.925 74.48 206.765 76.24 210.045 76.24ZM210.065 73.84C208.465 73.84 207.765 72.72 207.765 69.48C207.765 66.04 208.465 64.96 210.065 64.96C211.665 64.96 212.325 66.04 212.325 69.48C212.325 72.72 211.665 73.84 210.065 73.84ZM221.237 76.24C224.517 76.24 226.357 74.48 226.357 69.48C226.357 64.48 224.517 62.56 221.237 62.56C217.957 62.56 216.117 64.48 216.117 69.48C216.117 74.48 217.957 76.24 221.237 76.24ZM221.257 73.84C219.657 73.84 218.957 72.72 218.957 69.48C218.957 66.04 219.657 64.96 221.257 64.96C222.857 64.96 223.517 66.04 223.517 69.48C223.517 72.72 222.857 73.84 221.257 73.84Z" fill="#F29423"/>
<path d="M150.351 107.008H147.403V110H150.351V107.008ZM158.073 118.36H155.455V110H152.507V121.11C152.507 122.782 151.297 123.816 149.009 123.816C146.699 123.816 145.247 122.628 145.247 120.978C145.247 120.186 145.511 118.03 145.995 114.972L143.091 114.554C142.717 116.908 142.299 119.79 142.299 120.978C142.299 124.146 145.159 126.456 149.009 126.456C152.815 126.456 155.455 124.3 155.455 121.11V121H158.073C158.425 121 158.513 120.494 158.513 119.68C158.513 118.866 158.425 118.36 158.073 118.36ZM172.129 118.36H169.511V114.994C169.511 111.87 167.113 110 163.681 110C162.449 110 161.151 110.242 159.853 110.572L160.161 112.97C161.921 112.772 162.889 112.64 163.681 112.64C165.639 112.64 166.563 113.432 166.563 114.994V118.36H158.269C157.917 118.36 157.829 118.866 157.829 119.68C157.829 120.494 157.917 121 158.269 121H172.129C172.481 121 172.569 120.494 172.569 119.68C172.569 118.866 172.481 118.36 172.129 118.36ZM184.405 101.684H181.721V104.412H184.405V101.684ZM182.359 105.402H179.411V108.394H182.359V105.402ZM183.745 108.394H186.693V105.402H183.745V108.394ZM193.535 118.36H190.917V114.906C190.917 114.026 190.565 111.584 190.301 110L187.397 110.44C187.727 112.376 187.969 114.334 187.969 114.906V118.36H185.131C184.867 118.36 184.647 118.294 184.273 117.986C184.449 117.282 184.537 116.468 184.537 115.5V111.1H181.589V115.5C181.589 118.008 181.303 118.36 179.983 118.36H178.201V111.1H175.253V118.36H172.327C171.975 118.36 171.887 118.866 171.887 119.68C171.887 120.494 171.975 121 172.327 121H179.983C181.171 121 182.095 120.78 182.799 120.296C183.525 120.758 184.317 121 185.131 121H193.535C193.887 121 193.975 120.494 193.975 119.68C193.975 118.866 193.887 118.36 193.535 118.36ZM197.01 105.6V118.36H193.732C193.38 118.36 193.292 118.866 193.292 119.68C193.292 120.494 193.38 121 193.732 121H199.958V105.6H197.01ZM203.668 121H206.616V105.6H203.668V121ZM219.45 105.402H216.502V108.394H219.45V105.402ZM223.784 105.402H220.836V108.394H223.784V105.402ZM227.546 118.36H224.95V110H219.626C215.776 110 214.72 111.716 214.72 115.5C214.72 119.284 215.776 121 219.626 121H227.546C227.898 121 227.986 120.494 227.986 119.68C227.986 118.866 227.898 118.36 227.546 118.36ZM219.626 118.36C217.888 118.36 217.668 118.25 217.668 115.5C217.668 112.75 217.888 112.64 219.626 112.64H222.002V118.36H219.626ZM236.899 105.402H233.951V108.394H236.899V105.402ZM242.619 118.36H240.001V110H234.677C230.827 110 229.771 111.716 229.771 115.5C229.771 116.644 229.859 117.59 230.101 118.36H227.747C227.395 118.36 227.307 118.866 227.307 119.68C227.307 120.494 227.395 121 227.747 121H242.619C242.971 121 243.059 120.494 243.059 119.68C243.059 118.866 242.971 118.36 242.619 118.36ZM232.719 115.5C232.719 112.75 232.939 112.64 234.677 112.64H237.053V118.36H234.677C232.939 118.36 232.719 118.25 232.719 115.5ZM251.658 118.36H249.04V105.6H246.092V118.36H242.814C242.462 118.36 242.374 118.866 242.374 119.68C242.374 120.494 242.462 121 242.814 121H251.658C252.01 121 252.098 120.494 252.098 119.68C252.098 118.866 252.01 118.36 251.658 118.36ZM267.265 118.36H264.647V115.742C264.647 113.432 263.745 110.33 259.807 110.33H255.957L256.573 109.142C256.991 108.35 257.387 107.668 258.487 105.996L256.023 104.544C254.967 106.15 254.439 107.03 253.955 107.91L252.921 109.956L254.945 112.97H259.807C261.105 112.97 261.699 113.718 261.699 115.742V118.36H251.865C251.513 118.36 251.425 118.866 251.425 119.68C251.425 120.494 251.513 121 251.865 121H267.265C267.617 121 267.705 120.494 267.705 119.68C267.705 118.866 267.617 118.36 267.265 118.36ZM270.858 105.402H267.91V108.394H270.858V105.402ZM272.244 105.402V108.394H275.192V105.402H272.244ZM270.088 118.36H267.47C267.118 118.36 267.03 118.866 267.03 119.68C267.03 120.494 267.118 121 267.47 121H273.036V110H270.088V118.36Z" fill="#183B56"/>
<path d="M259 16H414V64H283C269.745 64 259 53.2548 259 40V16Z" fill="#F29423"/>
<path d="M308.545 41.236H304.981C304.243 41.236 303.973 41.146 303.451 40.804L302.335 42.244C303.235 42.874 304.063 43 304.981 43H305.629V43.234C305.629 44.872 304.837 45.7 303.253 45.7H298.159C296.287 45.7 295.027 44.71 295.027 43.288C295.027 42.784 295.189 41.434 295.423 39.886L293.497 39.616C293.245 41.182 293.065 42.658 293.065 43.324C293.065 45.736 295.279 47.464 298.159 47.464H303.253C305.989 47.464 307.591 45.754 307.591 43.252V43H308.545C308.833 43 308.905 42.658 308.905 42.118C308.905 41.578 308.833 41.236 308.545 41.236ZM297.817 50.47H299.779V48.4H297.817V50.47ZM300.877 50.47H302.839V48.4H300.877V50.47ZM310.804 30.598V32.686H312.766V30.598H310.804ZM310.804 41.236H308.752C308.446 41.236 308.392 41.578 308.392 42.118C308.392 42.658 308.446 43 308.752 43H312.766V34H310.804V41.236ZM320.397 41.236H317.949V30.256H315.987V43H320.397C320.703 43 320.757 42.658 320.757 42.118C320.757 41.578 320.703 41.236 320.397 41.236ZM331.719 41.236H329.667V37.888C329.667 35.422 327.831 34 325.059 34C323.997 34 322.881 34.216 321.837 34.468L322.053 36.07C323.547 35.89 324.393 35.782 325.077 35.782C326.841 35.782 327.705 36.484 327.705 37.888V41.236H320.595C320.289 41.236 320.235 41.578 320.235 42.118C320.235 42.658 320.289 43 320.595 43H331.719C332.025 43 332.079 42.658 332.079 42.118C332.079 41.578 332.025 41.236 331.719 41.236ZM324.087 46.186H326.049V44.116H324.087V46.186ZM337.79 34C336.314 34 335.018 34.27 334.478 34.486C334.262 35.314 333.956 37.024 333.956 38.77C333.956 39.688 334.028 40.552 334.136 41.236H331.922C331.616 41.236 331.562 41.578 331.562 42.118C331.562 42.658 331.616 43 331.922 43H342.524V38.59C342.524 35.224 340.94 34 337.79 34ZM336.098 41.236C336.008 40.552 335.918 39.616 335.918 38.77C335.918 37.834 336.026 36.772 336.17 35.89C336.656 35.818 337.232 35.764 337.79 35.764C339.986 35.764 340.562 36.358 340.562 38.59V41.236H336.098ZM355.089 31.912H353.127V34H355.089V31.912ZM361.353 41.236H359.301V34H357.339V43.252C357.339 44.746 356.205 45.7 354.207 45.7C352.191 45.7 350.877 44.62 350.877 43.144C350.877 42.478 351.111 40.606 351.525 38.104L349.581 37.816C349.275 39.706 348.915 42.172 348.915 43.144C348.915 45.664 351.183 47.464 354.207 47.464C357.141 47.464 359.301 45.826 359.301 43.252V43H361.353C361.659 43 361.713 42.658 361.713 42.118C361.713 41.578 361.659 41.236 361.353 41.236ZM372.685 41.236H370.633V37.888C370.633 35.422 368.797 34 366.025 34C364.963 34 363.847 34.216 362.803 34.468L363.019 36.07C364.513 35.89 365.359 35.782 366.043 35.782C367.807 35.782 368.671 36.484 368.671 37.888V41.236H361.561C361.255 41.236 361.201 41.578 361.201 42.118C361.201 42.658 361.255 43 361.561 43H372.685C372.991 43 373.045 42.658 373.045 42.118C373.045 41.578 372.991 41.236 372.685 41.236ZM382.176 27.898H380.376V29.806H382.176V27.898ZM380.718 30.598H378.756V32.686H380.718V30.598ZM381.816 32.686H383.778V30.598H381.816V32.686ZM386.838 34L384.894 34.306C385.182 35.854 385.398 37.474 385.398 38.014V41.236H382.914C382.626 41.236 382.374 41.146 382.032 40.876C382.176 40.318 382.248 39.634 382.248 38.824V34.9H380.286V38.824C380.286 40.912 380.034 41.236 378.9 41.236H377.19V34.9H375.228V41.236H372.888C372.582 41.236 372.528 41.578 372.528 42.118C372.528 42.658 372.582 43 372.888 43H378.9C379.818 43 380.52 42.82 381.06 42.442C381.636 42.802 382.284 43 382.914 43H387.36V38.014C387.36 37.222 387.054 35.278 386.838 34Z" fill="white"/>
<defs>
<filter id="filter0_d_0_1" x="0" y="0" width="415" height="184" filterUnits="userSpaceOnUse" color-interpolation-filters="sRGB">
<feFlood flood-opacity="0" result="BackgroundImageFix"/>
<feColorMatrix in="SourceAlpha" type="matrix" values="0 0 0 0 0 0 0 0 0 0 0 0 0 0 0 0 0 0 127 0" result="hardAlpha"/>
<feOffset dy="4"/>
<feGaussianBlur stdDeviation="10"/>
<feComposite in2="hardAlpha" operator="out"/>
<feColorMatrix type="matrix" values="0 0 0 0 0 0 0 0 0 0 0 0 0 0 0 0 0 0 0.16 0"/>
<feBlend mode="normal" in2="BackgroundImageFix" result="effect1_dropShadow_0_1"/>
<feBlend mode="normal" in="SourceGraphic" in2="effect1_dropShadow_0_1" result="shape"/>
</filter>
</defs>
</svg>