<svg width="361" height="280" viewBox="0 0 361 280" fill="none" xmlns="http://www.w3.org/2000/svg">
<g filter="url(#filter0_d_0_1)">
<rect x="20" y="16" width="321" height="240" rx="6" fill="white"/>
</g>
<rect x="101" y="187" width="160" height="44" rx="22" fill="#029BB0"/>
<circle cx="123" cy="209" r="21.5" fill="white" stroke="#029BB0"/>
<path d="M179.358 216V214.46H181.518V216H179.358ZM173.918 220.96C172.851 220.96 171.884 220.76 171.018 220.36C170.164 219.973 169.484 219.427 168.978 218.72C168.484 218.027 168.238 217.233 168.238 216.34C168.238 216.06 168.258 215.693 168.298 215.24C168.351 214.773 168.411 214.26 168.478 213.7C168.558 213.14 168.644 212.573 168.738 212C168.831 211.413 168.918 210.86 168.998 210.34L170.678 210.6C170.531 211.507 170.404 212.353 170.298 213.14C170.191 213.913 170.104 214.573 170.038 215.12C169.984 215.667 169.958 216.073 169.958 216.34C169.958 216.94 170.118 217.467 170.438 217.92C170.771 218.387 171.238 218.753 171.838 219.02C172.438 219.287 173.131 219.42 173.918 219.42C174.704 219.42 175.378 219.293 175.938 219.04C176.498 218.8 176.924 218.453 177.218 218C177.511 217.56 177.658 217.047 177.658 216.46V201.68H179.358V216.46C179.358 217.393 179.111 218.193 178.618 218.86C178.138 219.54 177.484 220.06 176.658 220.42C175.844 220.78 174.931 220.96 173.918 220.96ZM181.518 216V214.46C181.691 214.46 181.798 214.527 181.838 214.66C181.891 214.793 181.918 214.98 181.918 215.22C181.918 215.447 181.891 215.633 181.838 215.78C181.798 215.927 181.691 216 181.518 216ZM185.54 216V214.46H187.74V216H185.54ZM187.74 216V214.46C187.913 214.46 188.02 214.527 188.06 214.66C188.113 214.793 188.14 214.98 188.14 215.22C188.14 215.447 188.113 215.633 188.06 215.78C188.02 215.927 187.913 216 187.74 216ZM181.52 216V214.46H184.66L183.82 215.14V206H185.54V216H181.52ZM181.52 216C181.346 216 181.24 215.927 181.2 215.78C181.146 215.633 181.12 215.447 181.12 215.22C181.12 214.98 181.146 214.793 181.2 214.66C181.24 214.527 181.346 214.46 181.52 214.46V216ZM182.32 219.68V217.82H184.04V219.68H182.32ZM185.06 219.68V217.82H186.78V219.68H185.06ZM187.73 216V214.46H190.63C191.39 214.46 192.124 214.333 192.83 214.08C193.537 213.827 194.184 213.487 194.77 213.06C195.37 212.633 195.89 212.167 196.33 211.66C196.77 211.14 197.11 210.613 197.35 210.08C197.59 209.533 197.71 209.027 197.71 208.56V207.34L198.61 208.72C197.85 208.333 197.097 208.04 196.35 207.84C195.617 207.64 194.897 207.54 194.19 207.54C193.497 207.54 192.777 207.64 192.03 207.84C191.284 208.04 190.537 208.333 189.79 208.72L190.69 207.34V208.56C190.69 209.027 190.81 209.533 191.05 210.08C191.304 210.613 191.644 211.14 192.07 211.66C192.51 212.167 193.024 212.633 193.61 213.06C194.197 213.487 194.844 213.827 195.55 214.08C196.257 214.333 196.997 214.46 197.77 214.46H200.53V216H197.87C196.83 216 195.857 215.833 194.95 215.5C194.044 215.167 193.224 214.727 192.49 214.18C191.757 213.62 191.124 213.013 190.59 212.36C190.07 211.693 189.67 211.033 189.39 210.38C189.11 209.713 188.97 209.107 188.97 208.56V207.36C189.544 207.053 190.13 206.8 190.73 206.6C191.33 206.4 191.924 206.253 192.51 206.16C193.097 206.053 193.657 206 194.19 206C194.737 206 195.304 206.053 195.89 206.16C196.477 206.253 197.064 206.4 197.65 206.6C198.25 206.8 198.837 207.053 199.41 207.36V208.56C199.41 209.107 199.27 209.713 198.99 210.38C198.71 211.033 198.304 211.693 197.77 212.36C197.25 213.013 196.624 213.62 195.89 214.18C195.157 214.727 194.337 215.167 193.43 215.5C192.524 215.833 191.55 216 190.51 216H187.73ZM187.73 216C187.557 216 187.45 215.927 187.41 215.78C187.357 215.633 187.33 215.447 187.33 215.22C187.33 214.98 187.357 214.793 187.41 214.66C187.45 214.527 187.557 214.46 187.73 214.46V216ZM200.53 216V214.46C200.704 214.46 200.81 214.527 200.85 214.66C200.904 214.793 200.93 214.98 200.93 215.22C200.93 215.447 200.904 215.633 200.85 215.78C200.81 215.927 200.704 216 200.53 216ZM211.223 216V214.46H213.383V216H211.223ZM200.523 216V214.46H210.523L209.503 215.32V206.88L210.303 207.54H207.023C206.277 207.54 205.697 207.633 205.283 207.82C204.883 207.993 204.603 208.333 204.443 208.84C204.297 209.333 204.223 210.053 204.223 211C204.223 211.96 204.297 212.687 204.443 213.18C204.603 213.673 204.883 214.013 205.283 214.2C205.697 214.373 206.277 214.46 207.023 214.46V215.62C205.877 215.62 204.97 215.473 204.303 215.18C203.65 214.887 203.183 214.407 202.903 213.74C202.637 213.06 202.503 212.147 202.503 211C202.503 209.853 202.637 208.913 202.903 208.18C203.183 207.433 203.65 206.887 204.303 206.54C204.97 206.18 205.877 206 207.023 206H211.223V216H200.523ZM200.523 216C200.35 216 200.243 215.927 200.203 215.78C200.15 215.633 200.123 215.447 200.123 215.22C200.123 214.98 200.15 214.793 200.203 214.66C200.243 214.527 200.35 214.46 200.523 214.46V216ZM213.383 216V214.46C213.543 214.46 213.65 214.527 213.703 214.66C213.757 214.793 213.783 214.98 213.783 215.22C213.783 215.447 213.757 215.633 213.703 215.78C213.65 215.927 213.543 216 213.383 216ZM206.463 204.2V202.34H208.183V204.2H206.463ZM213.375 216V214.46H216.515L215.675 215.14V206H217.395V216H213.375ZM213.375 216C213.202 216 213.095 215.927 213.055 215.78C213.002 215.633 212.975 215.447 212.975 215.22C212.975 214.98 213.002 214.793 213.055 214.66C213.095 214.527 213.202 214.46 213.375 214.46V216ZM214.175 204.28V202.42H215.895V204.28H214.175ZM216.915 204.28V202.42H218.635V204.28H216.915Z" fill="white"/>
<path opacity="0.4" d="M123.303 221C123.153 221 123.006 220.965 122.872 220.897L118.552 218.66C117.451 218.117 116.456 217.379 115.618 216.481C113.984 214.681 113.07 212.343 113.05 209.912L113 201.949C113.001 201.495 113.144 201.054 113.408 200.685C113.672 200.317 114.045 200.041 114.474 199.894L122.409 197.128C122.886 196.96 123.406 196.957 123.885 197.12L131.85 199.792C132.282 199.933 132.658 200.205 132.927 200.571C133.196 200.937 133.343 201.378 133.349 201.832L133.4 209.796C133.412 212.225 132.53 214.575 130.921 216.396C130.094 217.3 129.11 218.047 128.016 218.6L123.733 220.891C123.601 220.962 123.453 220.999 123.303 221Z" fill="#029BB0"/>
<path d="M122.383 211.785C122.144 211.786 121.913 211.694 121.741 211.527L119.441 209.319C119.356 209.239 119.289 209.142 119.243 209.035C119.196 208.928 119.172 208.813 119.172 208.697C119.171 208.58 119.194 208.465 119.239 208.357C119.284 208.25 119.35 208.152 119.433 208.071C119.604 207.904 119.834 207.81 120.073 207.809C120.311 207.807 120.542 207.898 120.715 208.063L122.37 209.654L126.411 205.67C126.582 205.503 126.811 205.41 127.05 205.408C127.289 205.406 127.519 205.497 127.692 205.662C127.776 205.742 127.844 205.838 127.89 205.945C127.936 206.052 127.961 206.167 127.961 206.283C127.962 206.4 127.939 206.515 127.895 206.622C127.85 206.73 127.784 206.827 127.7 206.908L123.023 211.527C122.852 211.695 122.622 211.79 122.383 211.79" fill="#029BB0"/>
<rect x="20" y="16" width="321" height="144" rx="6" fill="#E5F5F7"/>
<path opacity="0.4" d="M259.98 93.8815C259.719 93.8823 259.461 93.8205 259.228 93.7014L251.69 89.798C249.767 88.8508 248.032 87.5623 246.57 85.9951C243.718 82.8546 242.123 78.7739 242.088 74.5321L242 60.6357C242.002 59.8447 242.251 59.074 242.712 58.4313C243.173 57.7886 243.823 57.3059 244.572 57.0506L258.42 52.2238C259.253 51.9305 260.16 51.9254 260.996 52.2091L274.894 56.8726C275.648 57.1179 276.305 57.5933 276.775 58.2319C277.244 58.8705 277.501 59.6402 277.51 60.4326L277.6 74.329C277.621 78.5692 276.081 82.669 273.273 85.8464C271.831 87.4255 270.113 88.729 268.204 89.6933L260.73 93.6909C260.499 93.8148 260.242 93.8802 259.98 93.8815Z" fill="#029BB0"/>
<path d="M258.375 77.801C257.957 77.803 257.555 77.6414 257.254 77.3507L253.24 73.4976C253.093 73.3574 252.975 73.189 252.895 73.0023C252.814 72.8157 252.772 72.6147 252.771 72.4114C252.769 72.208 252.809 72.0066 252.888 71.819C252.966 71.6315 253.082 71.4617 253.227 71.3198C253.526 71.0286 253.926 70.8644 254.343 70.8617C254.76 70.8589 255.161 71.0179 255.464 71.3051L258.352 74.0819L265.404 67.1295C265.703 66.8389 266.102 66.6751 266.519 66.6724C266.935 66.6697 267.337 66.8282 267.639 67.1148C267.786 67.2547 267.904 67.4229 267.985 67.6093C268.065 67.7957 268.108 67.9964 268.109 68.1996C268.11 68.4027 268.071 68.6041 267.992 68.7915C267.914 68.979 267.799 69.1487 267.653 69.2906L259.491 77.3507C259.193 77.6442 258.792 77.8089 258.375 77.8093" fill="#029BB0"/>
<path d="M121.942 69.0079H118.994V71.9999H121.942V69.0079ZM129.664 80.3599H127.046V71.9999H124.098V83.1099C124.098 84.7819 122.888 85.8159 120.6 85.8159C118.29 85.8159 116.838 84.6279 116.838 82.9779C116.838 82.1859 117.102 80.0299 117.586 76.9719L114.682 76.5539C114.308 78.9079 113.89 81.7899 113.89 82.9779C113.89 86.1459 116.75 88.4559 120.6 88.4559C124.406 88.4559 127.046 86.2999 127.046 83.1099V82.9999H129.664C130.016 82.9999 130.104 82.4939 130.104 81.6799C130.104 80.8659 130.016 80.3599 129.664 80.3599ZM137.252 71.9999C135.382 71.9999 133.754 72.3299 133.05 72.5939C132.786 73.5839 132.412 75.6519 132.412 77.7639C132.412 78.7099 132.478 79.5899 132.566 80.3599H129.86C129.508 80.3599 129.42 80.8659 129.42 81.6799C129.42 82.4939 129.508 82.9999 129.86 82.9999H143.214V77.6099C143.214 73.4959 141.212 71.9999 137.252 71.9999ZM135.536 80.3599C135.426 79.5679 135.36 78.5999 135.36 77.7639C135.36 76.8619 135.448 75.7399 135.602 74.7499C136.108 74.6839 136.68 74.6399 137.252 74.6399C139.738 74.6399 140.266 75.1459 140.266 77.6099V80.3599H135.536ZM153.155 80.3599H149.877V67.5999H146.929V82.9999H153.155C153.507 82.9999 153.595 82.4939 153.595 81.6799C153.595 80.8659 153.507 80.3599 153.155 80.3599ZM165.192 67.4019H162.244V70.3939H165.192V67.4019ZM165.324 71.9999C162.42 71.9999 160.704 73.5619 159.208 75.3439V71.9999H156.26V80.3599H153.356C153.004 80.3599 152.916 80.8659 152.916 81.6799C152.916 82.4939 153.004 82.9999 153.356 82.9999H170.45V77.6979C170.45 75.2339 169.504 71.9999 165.324 71.9999ZM159.208 80.3599V78.9079C160.374 77.3679 162.662 74.6399 165.324 74.6399C166.82 74.6399 167.502 75.4759 167.502 77.6979V80.3599H159.208Z" fill="#029BB0"/>
<path d="M182.827 67.4019H179.879V70.3939H182.827V67.4019ZM187.161 67.4019H184.213V70.3939H187.161V67.4019ZM190.923 80.3599H188.327V71.9999H183.003C179.153 71.9999 178.097 73.7159 178.097 77.4999C178.097 81.2839 179.153 82.9999 183.003 82.9999H190.923C191.275 82.9999 191.363 82.4939 191.363 81.6799C191.363 80.8659 191.275 80.3599 190.923 80.3599ZM183.003 80.3599C181.265 80.3599 181.045 80.2499 181.045 77.4999C181.045 74.7499 181.265 74.6399 183.003 74.6399H185.379V80.3599H183.003ZM198.516 71.9999C196.646 71.9999 195.018 72.3299 194.314 72.5939C194.05 73.5839 193.676 75.6519 193.676 77.7639C193.676 78.7099 193.742 79.5899 193.83 80.3599H191.124C190.772 80.3599 190.684 80.8659 190.684 81.6799C190.684 82.4939 190.772 82.9999 191.124 82.9999H204.478V77.6099C204.478 73.4959 202.476 71.9999 198.516 71.9999ZM196.8 80.3599C196.69 79.5679 196.624 78.5999 196.624 77.7639C196.624 76.8619 196.712 75.7399 196.866 74.7499C197.372 74.6839 197.944 74.6399 198.516 74.6399C201.002 74.6399 201.53 75.1459 201.53 77.6099V80.3599H196.8ZM218.224 80.3599H215.606V77.8959C215.606 73.4739 213.538 71.9999 210.018 71.9999H208.236V74.6399H210.018C212.108 74.6399 212.658 75.1899 212.658 77.8959V80.3599H207.092V82.9999H218.224C218.576 82.9999 218.664 82.4939 218.664 81.6799C218.664 80.8659 218.576 80.3599 218.224 80.3599ZM225.308 67.6219H222.36V70.6139H225.308V67.6219ZM223.834 71.9999C222.602 71.9999 221.304 72.2419 220.006 72.5719L220.314 74.9699C222.074 74.7719 223.042 74.6399 223.834 74.6399C225.792 74.6399 226.716 75.4319 226.716 76.9939V80.3599H218.422C218.07 80.3599 217.982 80.8659 217.982 81.6799C217.982 82.4939 218.07 82.9999 218.422 82.9999H229.664V76.9939C229.664 73.8699 227.266 71.9999 223.834 71.9999Z" fill="#183B56"/>
<path d="M81.0799 129.464C80.3719 129.464 79.7119 129.362 79.0999 129.158C78.4999 128.954 77.9719 128.672 77.5159 128.312C77.0599 127.964 76.6999 127.538 76.4359 127.034C76.1839 126.542 76.0579 125.996 76.0579 125.396C76.0579 125.156 76.0759 124.844 76.1119 124.46C76.1599 124.064 76.2139 123.62 76.2739 123.128C76.3459 122.636 76.4239 122.132 76.5079 121.616L78.0199 121.832C77.8999 122.624 77.7979 123.344 77.7139 123.992C77.6419 124.64 77.6059 125.102 77.6059 125.378C77.6059 125.906 77.7499 126.374 78.0379 126.782C78.3379 127.19 78.7459 127.508 79.2619 127.736C79.7899 127.964 80.3959 128.078 81.0799 128.078H86.1739C87.0739 128.078 87.7519 127.832 88.2079 127.34C88.6759 126.86 88.9099 126.128 88.9099 125.144C88.9099 124.664 88.8319 124.286 88.6759 124.01C88.5319 123.734 88.2739 123.506 87.9019 123.326C87.5299 123.134 87.0019 122.936 86.3179 122.732C85.6819 122.552 85.1119 122.378 84.6079 122.21C84.1159 122.03 83.6959 121.826 83.3479 121.598C82.9999 121.358 82.7359 121.064 82.5559 120.716C82.3759 120.356 82.2859 119.888 82.2859 119.312C82.2859 118.568 82.4419 117.95 82.7539 117.458C83.0659 116.966 83.5099 116.6 84.0859 116.36C84.6739 116.12 85.3819 116 86.2099 116C86.6179 116 87.0859 116.03 87.6139 116.09C88.1539 116.15 88.8979 116.252 89.8459 116.396L89.6659 117.692C88.8259 117.596 88.1239 117.524 87.5599 117.476C86.9959 117.416 86.5279 117.386 86.1559 117.386C85.3519 117.386 84.7579 117.536 84.3739 117.836C83.9899 118.136 83.7979 118.604 83.7979 119.24C83.7979 119.708 83.9059 120.068 84.1219 120.32C84.3379 120.56 84.6619 120.758 85.0939 120.914C85.5379 121.058 86.0839 121.22 86.7319 121.4C87.4999 121.628 88.1599 121.88 88.7119 122.156C89.2639 122.42 89.6839 122.792 89.9719 123.272C90.2719 123.74 90.4219 124.388 90.4219 125.216C90.4219 126.044 90.2539 126.776 89.9179 127.412C89.5939 128.06 89.1139 128.564 88.4779 128.924C87.8539 129.284 87.0859 129.464 86.1739 129.464H81.0799ZM81.2419 132.812V131.138H82.7899V132.812H81.2419ZM83.7079 132.812V131.138H85.2559V132.812H83.7079ZM99.0857 125V116H100.634V124.226L99.8777 123.614H102.614V125H99.0857ZM95.2157 119.168V117.764H99.0857V119.168H95.2157ZM91.8317 129.05C91.6757 129.05 91.5137 129.038 91.3457 129.014C91.1657 129.002 90.9917 128.99 90.8237 128.978L90.9677 127.592C91.1357 127.604 91.2977 127.616 91.4537 127.628C91.5977 127.652 91.7237 127.664 91.8317 127.664C92.3837 127.664 92.8277 127.454 93.1637 127.034C93.4997 126.614 93.6677 126.032 93.6677 125.288V116H95.2157V125.288C95.2157 126.032 95.0717 126.686 94.7837 127.25C94.4957 127.826 94.0937 128.27 93.5777 128.582C93.0737 128.894 92.4917 129.05 91.8317 129.05ZM102.614 125V123.614C102.77 123.614 102.866 123.674 102.902 123.794C102.95 123.914 102.974 124.082 102.974 124.298C102.974 124.502 102.95 124.67 102.902 124.802C102.866 124.934 102.77 125 102.614 125ZM97.7177 114.452V112.778H99.2657V114.452H97.7177ZM100.184 114.452V112.778H101.732V114.452H100.184ZM116.371 125V123.614H118.315V125H116.371ZM112.249 125C111.829 125 111.415 124.922 111.007 124.766C110.599 124.598 110.215 124.346 109.855 124.01L110.845 122.966C111.121 123.194 111.367 123.362 111.583 123.47C111.799 123.566 112.021 123.614 112.249 123.614H115.471L114.823 124.262V119.996C114.823 119.792 114.799 119.492 114.751 119.096C114.715 118.7 114.655 118.256 114.571 117.764C114.499 117.26 114.409 116.756 114.301 116.252L115.813 116C115.897 116.42 115.981 116.888 116.065 117.404C116.149 117.92 116.221 118.412 116.281 118.88C116.341 119.348 116.371 119.72 116.371 119.996V125H112.249ZM102.619 125V123.614H105.247L104.869 123.992V117.8H106.381V125H102.619ZM106.381 125V123.614H108.343C108.751 123.614 109.057 123.554 109.261 123.434C109.477 123.314 109.627 123.074 109.711 122.714C109.795 122.354 109.837 121.826 109.837 121.13V116.9H111.367V121.13C111.367 122.078 111.265 122.84 111.061 123.416C110.857 123.98 110.533 124.388 110.089 124.64C109.645 124.88 109.063 125 108.343 125H106.381ZM102.619 125C102.463 125 102.367 124.934 102.331 124.802C102.283 124.67 102.259 124.502 102.259 124.298C102.259 124.082 102.283 123.914 102.331 123.794C102.367 123.674 102.463 123.614 102.619 123.614V125ZM118.315 125V123.614C118.471 123.614 118.567 123.674 118.603 123.794C118.651 123.914 118.675 124.082 118.675 124.298C118.675 124.502 118.651 124.67 118.603 124.802C118.567 124.934 118.471 125 118.315 125ZM109.891 111.95V110.384H111.295V111.95H109.891ZM108.541 114.38V112.706H110.071V114.38H108.541ZM111.115 114.38V112.706H112.645V114.38H111.115ZM128.576 125V123.614H130.52V125H128.576ZM118.316 125V123.614H128.09L127.046 124.37V120.59C127.046 119.774 126.95 119.132 126.758 118.664C126.578 118.196 126.26 117.866 125.804 117.674C125.36 117.482 124.754 117.386 123.986 117.386C123.482 117.386 122.984 117.422 122.492 117.494C122 117.554 121.616 117.644 121.34 117.764L122.276 116.828C122.204 117.116 122.132 117.482 122.06 117.926C121.988 118.358 121.928 118.826 121.88 119.33C121.832 119.822 121.808 120.314 121.808 120.806C121.808 121.31 121.832 121.808 121.88 122.3C121.928 122.792 121.982 123.218 122.042 123.578C122.102 123.926 122.15 124.172 122.186 124.316L120.728 124.73C120.68 124.574 120.62 124.304 120.548 123.92C120.476 123.536 120.41 123.074 120.35 122.534C120.302 121.994 120.278 121.418 120.278 120.806C120.278 120.218 120.308 119.648 120.368 119.096C120.428 118.532 120.494 118.022 120.566 117.566C120.65 117.11 120.728 116.744 120.8 116.468C121.064 116.36 121.484 116.252 122.06 116.144C122.648 116.036 123.29 115.982 123.986 115.982C125.006 115.982 125.858 116.132 126.542 116.432C127.226 116.732 127.736 117.218 128.072 117.89C128.408 118.562 128.576 119.462 128.576 120.59V125H118.316ZM118.316 125C118.16 125 118.064 124.934 118.028 124.802C117.98 124.67 117.956 124.502 117.956 124.298C117.956 124.082 117.98 123.914 118.028 123.794C118.064 123.674 118.16 123.614 118.316 123.614V125ZM130.52 125V123.614C130.676 123.614 130.772 123.674 130.808 123.794C130.856 123.914 130.88 124.082 130.88 124.298C130.88 124.502 130.856 124.67 130.808 124.802C130.772 124.934 130.676 125 130.52 125ZM132.676 125V112.112H134.224V125H132.676ZM130.516 125V123.614H132.676V125H130.516ZM130.516 125C130.36 125 130.264 124.934 130.228 124.802C130.18 124.67 130.156 124.502 130.156 124.298C130.156 124.082 130.18 123.914 130.228 123.794C130.264 123.674 130.36 123.614 130.516 123.614V125ZM137.288 125V112.112H138.818V125H137.288ZM144.765 129.05C144.333 129.05 143.877 129.014 143.397 128.942C142.929 128.882 142.413 128.792 141.849 128.672L142.083 127.43C142.719 127.514 143.247 127.574 143.667 127.61C144.099 127.646 144.465 127.664 144.765 127.664C145.737 127.664 146.445 127.478 146.889 127.106C147.333 126.734 147.555 126.194 147.555 125.486V116.918L148.257 117.386H145.323C144.663 117.386 144.147 117.47 143.775 117.638C143.415 117.794 143.163 118.094 143.019 118.538C142.875 118.982 142.803 119.636 142.803 120.5C142.803 121.364 142.869 122.018 143.001 122.462C143.145 122.906 143.403 123.212 143.775 123.38C144.147 123.536 144.663 123.614 145.323 123.614H147.555V125H145.323C144.291 125 143.475 124.844 142.875 124.532C142.287 124.208 141.867 123.716 141.615 123.056C141.375 122.384 141.255 121.532 141.255 120.5C141.255 119.48 141.375 118.634 141.615 117.962C141.867 117.29 142.287 116.798 142.875 116.486C143.475 116.162 144.291 116 145.323 116H149.103V125.468C149.103 126.224 148.929 126.872 148.581 127.412C148.233 127.952 147.735 128.36 147.087 128.636C146.439 128.912 145.665 129.05 144.765 129.05ZM162.127 129.104L162.361 130.364C161.797 130.484 161.275 130.574 160.795 130.634C160.327 130.706 159.877 130.742 159.445 130.742C158.557 130.742 157.783 130.604 157.123 130.328C156.475 130.052 155.977 129.644 155.629 129.104C155.281 128.564 155.107 127.916 155.107 127.16C155.107 126.572 155.215 126.026 155.431 125.522C155.659 125.018 155.977 124.586 156.385 124.226C156.793 123.854 157.279 123.566 157.843 123.362L158.365 123.128C158.809 122.948 159.265 122.744 159.733 122.516C160.201 122.276 160.645 122.012 161.065 121.724C161.497 121.436 161.881 121.118 162.217 120.77C162.565 120.41 162.835 120.026 163.027 119.618C163.219 119.21 163.315 118.772 163.315 118.304V117.206L164.143 118.448C163.459 118.1 162.781 117.836 162.109 117.656C161.437 117.476 160.783 117.386 160.147 117.386C159.523 117.386 158.875 117.476 158.203 117.656C157.543 117.836 156.871 118.1 156.187 118.448L156.997 117.206V118.304C156.997 118.724 157.105 119.18 157.321 119.672C157.549 120.152 157.855 120.626 158.239 121.094C158.635 121.55 159.097 121.97 159.625 122.354C160.153 122.738 160.735 123.044 161.371 123.272C162.007 123.5 162.673 123.614 163.369 123.614H165.817V125H163.477C162.541 125 161.665 124.85 160.849 124.55C160.033 124.25 159.295 123.854 158.635 123.362C157.975 122.858 157.405 122.312 156.925 121.724C156.457 121.124 156.097 120.53 155.845 119.942C155.593 119.342 155.467 118.796 155.467 118.304V117.224C155.983 116.948 156.505 116.72 157.033 116.54C157.573 116.36 158.107 116.228 158.635 116.144C159.163 116.048 159.667 116 160.147 116C160.651 116 161.161 116.048 161.677 116.144C162.205 116.228 162.733 116.36 163.261 116.54C163.801 116.72 164.329 116.948 164.845 117.224V118.304C164.845 119 164.701 119.636 164.413 120.212C164.137 120.776 163.765 121.286 163.297 121.742C162.841 122.186 162.343 122.582 161.803 122.93C161.263 123.266 160.729 123.56 160.201 123.812C160.093 123.86 159.937 123.926 159.733 124.01C159.541 124.094 159.337 124.184 159.121 124.28C158.917 124.376 158.737 124.46 158.581 124.532C158.425 124.592 158.329 124.634 158.293 124.658C157.873 124.85 157.495 125.138 157.159 125.522C156.823 125.906 156.655 126.452 156.655 127.16C156.655 127.868 156.877 128.408 157.321 128.78C157.777 129.164 158.485 129.356 159.445 129.356C159.733 129.356 160.093 129.332 160.525 129.284C160.969 129.248 161.503 129.188 162.127 129.104ZM165.817 125V123.614C165.973 123.614 166.069 123.674 166.105 123.794C166.153 123.914 166.177 124.082 166.177 124.298C166.177 124.502 166.153 124.67 166.105 124.802C166.069 124.934 165.973 125 165.817 125ZM165.812 125V123.614H168.495L167.757 124.226V116H169.287V125H165.812ZM165.812 125C165.656 125 165.56 124.934 165.524 124.802C165.476 124.67 165.452 124.502 165.452 124.298C165.452 124.082 165.476 123.914 165.524 123.794C165.56 123.674 165.656 123.614 165.812 123.614V125ZM167.631 114.344C167.439 114.104 167.289 113.87 167.181 113.642C167.073 113.402 167.019 113.156 167.019 112.904C167.019 112.544 167.109 112.226 167.289 111.95C167.469 111.662 167.709 111.44 168.009 111.284C168.309 111.116 168.633 111.032 168.981 111.032C169.173 111.032 169.365 111.062 169.557 111.122C169.761 111.17 169.935 111.242 170.079 111.338L169.593 112.202C169.497 112.142 169.401 112.106 169.305 112.094C169.221 112.07 169.131 112.058 169.035 112.058C168.759 112.058 168.537 112.136 168.369 112.292C168.213 112.448 168.135 112.652 168.135 112.904C168.135 113.048 168.165 113.192 168.225 113.336C168.297 113.48 168.399 113.636 168.531 113.804L167.631 114.344ZM166.677 114.362V113.354H170.331V114.362H166.677ZM173.974 125V123.614H176.152V125H173.974ZM172.444 125V112.112H173.974V125H172.444ZM176.152 125V123.614C176.308 123.614 176.404 123.674 176.44 123.794C176.488 123.914 176.512 124.082 176.512 124.298C176.512 124.502 176.488 124.67 176.44 124.802C176.404 124.934 176.308 125 176.152 125ZM179.622 125V123.614H181.566V125H179.622ZM176.148 125V123.614H178.83L178.092 124.226V116H179.622V125H176.148ZM176.148 125C175.992 125 175.896 124.934 175.86 124.802C175.812 124.67 175.788 124.502 175.788 124.298C175.788 124.082 175.812 123.914 175.86 123.794C175.896 123.674 175.992 123.614 176.148 123.614V125ZM181.566 125V123.614C181.722 123.614 181.818 123.674 181.854 123.794C181.902 123.914 181.926 124.082 181.926 124.298C181.926 124.502 181.902 124.67 181.854 124.802C181.818 124.934 181.722 125 181.566 125ZM178.092 128.33V126.656H179.64V128.33H178.092ZM183.723 125V112.112H185.271V125H183.723ZM181.562 125V123.614H183.723V125H181.562ZM181.562 125C181.406 125 181.31 124.934 181.274 124.802C181.226 124.67 181.202 124.502 181.202 124.298C181.202 124.082 181.226 123.914 181.274 123.794C181.31 123.674 181.406 123.614 181.562 123.614V125ZM188.335 125V112.112H189.865V125H188.335ZM209.847 125V123.614H211.773V125H209.847ZM201.063 129.788C200.163 129.788 199.347 129.62 198.615 129.284C197.895 128.96 197.319 128.504 196.887 127.916C196.467 127.34 196.257 126.668 196.257 125.9C196.257 125.648 196.281 125.306 196.329 124.874C196.377 124.442 196.437 123.968 196.509 123.452C196.581 122.924 196.659 122.396 196.743 121.868C196.827 121.328 196.905 120.83 196.977 120.374L198.489 120.608C198.357 121.424 198.237 122.174 198.129 122.858C198.033 123.542 197.955 124.136 197.895 124.64C197.847 125.132 197.823 125.516 197.823 125.792C197.823 126.344 197.955 126.812 198.219 127.196C198.483 127.592 198.861 127.892 199.353 128.096C199.845 128.3 200.415 128.402 201.063 128.402H205.239C206.211 128.402 206.961 128.186 207.489 127.754C208.029 127.322 208.299 126.734 208.299 125.99V116.792L209.019 117.386H206.067C205.395 117.386 204.873 117.47 204.501 117.638C204.141 117.794 203.889 118.1 203.745 118.556C203.601 119 203.529 119.648 203.529 120.5C203.529 121.364 203.601 122.018 203.745 122.462C203.889 122.906 204.141 123.212 204.501 123.38C204.873 123.536 205.395 123.614 206.067 123.614H208.299V125H206.067C205.011 125 204.189 124.844 203.601 124.532C203.013 124.208 202.599 123.716 202.359 123.056C202.119 122.384 201.999 121.532 201.999 120.5C201.999 119.468 202.119 118.622 202.359 117.962C202.599 117.29 203.013 116.798 203.601 116.486C204.189 116.162 205.011 116 206.067 116H209.847V125.99C209.847 126.818 209.631 127.514 209.199 128.078C208.767 128.654 208.203 129.08 207.507 129.356C206.811 129.644 206.055 129.788 205.239 129.788H201.063ZM211.773 125V123.614C211.929 123.614 212.025 123.674 212.061 123.794C212.109 123.914 212.133 124.082 212.133 124.298C212.133 124.502 212.109 124.67 212.061 124.802C212.025 124.934 211.929 125 211.773 125ZM204.321 114.452V112.778H205.869V114.452H204.321ZM206.787 114.452V112.778H208.335V114.452H206.787ZM211.779 125V123.614H219.681L219.213 124.028V119.726C219.213 118.946 218.967 118.364 218.475 117.98C217.995 117.596 217.263 117.404 216.279 117.404C215.967 117.404 215.523 117.434 214.947 117.494C214.383 117.542 213.783 117.608 213.147 117.692L212.967 116.45C213.459 116.33 213.993 116.228 214.569 116.144C215.157 116.048 215.727 116 216.279 116C217.191 116 217.983 116.144 218.655 116.432C219.327 116.72 219.843 117.14 220.203 117.692C220.563 118.244 220.743 118.922 220.743 119.726V125H211.779ZM211.779 125C211.623 125 211.527 124.934 211.491 124.802C211.443 124.67 211.419 124.502 211.419 124.298C211.419 124.082 211.443 123.914 211.491 123.794C211.527 123.674 211.623 123.614 211.779 123.614V125ZM236.499 125V123.614H238.443V125H236.499ZM231.603 129.464C230.643 129.464 229.773 129.284 228.993 128.924C228.225 128.576 227.613 128.084 227.157 127.448C226.713 126.824 226.491 126.11 226.491 125.306C226.491 125.054 226.509 124.724 226.545 124.316C226.593 123.896 226.647 123.434 226.707 122.93C226.779 122.426 226.857 121.916 226.941 121.4C227.025 120.872 227.103 120.374 227.175 119.906L228.687 120.14C228.555 120.956 228.441 121.718 228.345 122.426C228.249 123.122 228.171 123.716 228.111 124.208C228.063 124.7 228.039 125.066 228.039 125.306C228.039 125.846 228.183 126.32 228.471 126.728C228.771 127.148 229.191 127.478 229.731 127.718C230.271 127.958 230.895 128.078 231.603 128.078C232.311 128.078 232.917 127.964 233.421 127.736C233.925 127.52 234.309 127.208 234.573 126.8C234.837 126.404 234.969 125.942 234.969 125.414V116H236.499V125.414C236.499 126.254 236.277 126.974 235.833 127.574C235.401 128.186 234.813 128.654 234.069 128.978C233.337 129.302 232.515 129.464 231.603 129.464ZM238.443 125V123.614C238.599 123.614 238.695 123.674 238.731 123.794C238.779 123.914 238.803 124.082 238.803 124.298C238.803 124.502 238.779 124.67 238.731 124.802C238.695 124.934 238.599 125 238.443 125ZM230.757 115.91V114.236H232.305V115.91H230.757ZM248.705 125V123.614H250.649V125H248.705ZM238.445 125V123.614H248.219L247.175 124.37V120.59C247.175 119.774 247.079 119.132 246.887 118.664C246.707 118.196 246.389 117.866 245.933 117.674C245.489 117.482 244.883 117.386 244.115 117.386C243.611 117.386 243.113 117.422 242.621 117.494C242.129 117.554 241.745 117.644 241.469 117.764L242.405 116.828C242.333 117.116 242.261 117.482 242.189 117.926C242.117 118.358 242.057 118.826 242.009 119.33C241.961 119.822 241.937 120.314 241.937 120.806C241.937 121.31 241.961 121.808 242.009 122.3C242.057 122.792 242.111 123.218 242.171 123.578C242.231 123.926 242.279 124.172 242.315 124.316L240.857 124.73C240.809 124.574 240.749 124.304 240.677 123.92C240.605 123.536 240.539 123.074 240.479 122.534C240.431 121.994 240.407 121.418 240.407 120.806C240.407 120.218 240.437 119.648 240.497 119.096C240.557 118.532 240.623 118.022 240.695 117.566C240.779 117.11 240.857 116.744 240.929 116.468C241.193 116.36 241.613 116.252 242.189 116.144C242.777 116.036 243.419 115.982 244.115 115.982C245.135 115.982 245.987 116.132 246.671 116.432C247.355 116.732 247.865 117.218 248.201 117.89C248.537 118.562 248.705 119.462 248.705 120.59V125H238.445ZM238.445 125C238.289 125 238.193 124.934 238.157 124.802C238.109 124.67 238.085 124.502 238.085 124.298C238.085 124.082 238.109 123.914 238.157 123.794C238.193 123.674 238.289 123.614 238.445 123.614V125ZM250.649 125V123.614C250.805 123.614 250.901 123.674 250.937 123.794C250.985 123.914 251.009 124.082 251.009 124.298C251.009 124.502 250.985 124.67 250.937 124.802C250.901 124.934 250.805 125 250.649 125ZM264.127 125V123.614H266.071V125H264.127ZM250.645 125V123.614H263.983L262.597 124.856V120.698C262.597 119.954 262.489 119.342 262.273 118.862C262.069 118.37 261.763 118.004 261.355 117.764C260.959 117.512 260.461 117.386 259.861 117.386C259.333 117.386 258.841 117.476 258.385 117.656C257.941 117.836 257.521 118.07 257.125 118.358C256.741 118.646 256.381 118.964 256.045 119.312C255.721 119.648 255.421 119.99 255.145 120.338C254.869 120.686 254.623 121.004 254.407 121.292L253.939 119.942C254.263 119.546 254.581 119.156 254.893 118.772C255.217 118.388 255.547 118.028 255.883 117.692C256.219 117.356 256.585 117.062 256.981 116.81C257.377 116.558 257.815 116.36 258.295 116.216C258.775 116.072 259.315 116 259.915 116C260.755 116 261.445 116.144 261.985 116.432C262.537 116.708 262.969 117.086 263.281 117.566C263.593 118.034 263.809 118.544 263.929 119.096C264.061 119.636 264.127 120.17 264.127 120.698V125H250.645ZM253.165 123.614V116H254.713V123.614H253.165ZM250.645 125C250.489 125 250.393 124.934 250.357 124.802C250.309 124.67 250.285 124.502 250.285 124.298C250.285 124.082 250.309 123.914 250.357 123.794C250.393 123.674 250.489 123.614 250.645 123.614V125ZM266.071 125V123.614C266.227 123.614 266.323 123.674 266.359 123.794C266.407 123.914 266.431 124.082 266.431 124.298C266.431 124.502 266.407 124.67 266.359 124.802C266.323 124.934 266.227 125 266.071 125ZM258.061 114.398V112.724H259.609V114.398H258.061ZM266.078 125V123.614H268.76L268.022 124.226V116H269.552V125H266.078ZM266.078 125C265.922 125 265.826 124.934 265.79 124.802C265.742 124.67 265.718 124.502 265.718 124.298C265.718 124.082 265.742 123.914 265.79 123.794C265.826 123.674 265.922 123.614 266.078 123.614V125ZM268.022 114.38V112.706H269.57V114.38H268.022Z" fill="#5A7184"/>
<defs>
<filter id="filter0_d_0_1" x="0" y="0" width="361" height="280" filterUnits="userSpaceOnUse" color-interpolation-filters="sRGB">
<feFlood flood-opacity="0" result="BackgroundImageFix"/>
<feColorMatrix in="SourceAlpha" type="matrix" values="0 0 0 0 0 0 0 0 0 0 0 0 0 0 0 0 0 0 127 0" result="hardAlpha"/>
<feOffset dy="4"/>
<feGaussianBlur stdDeviation="10"/>
<feComposite in2="hardAlpha" operator="out"/>
<feColorMatrix type="matrix" values="0 0 0 0 0 0 0 0 0 0 0 0 0 0 0 0 0 0 0.16 0"/>
<feBlend mode="normal" in2="BackgroundImageFix" result="effect1_dropShadow_0_1"/>
<feBlend mode="normal" in="SourceGraphic" in2="effect1_dropShadow_0_1" result="shape"/>
</filter>
</defs>
</svg>
