<svg width="24" height="24" viewBox="0 0 24 24" fill="none" xmlns="http://www.w3.org/2000/svg">
<path fill-rule="evenodd" clip-rule="evenodd" d="M17.2396 0H6.75284C1.80884 0 0 1.80884 0 6.75284V17.2472C0 22.1912 1.80884 24 6.75284 24H17.2396C22.1836 24 23.9949 22.1912 23.9949 17.2472V6.75284C24 1.80884 22.1912 0 17.2396 0Z" fill="#C8102E"/>
<path d="M4.7516 12H5.38823V15.1402H4.7516V13.8644H3.31412V15.1402H2.67749V12H3.31412V13.2631H4.7516V12ZM8.33896 13.7962C8.33896 14.3014 8.08633 14.5793 7.62654 14.5793C7.16675 14.5793 6.90907 14.3014 6.90907 13.7684V12H6.27244V13.7937C6.27244 14.6753 6.76254 15.1806 7.61644 15.1806C8.47033 15.1806 8.9756 14.6753 8.9756 13.7659V12H8.33896V13.7962ZM15.6956 14.1574L14.9832 12H14.4602L13.7529 14.16L13.0581 12H12.3811L13.475 15.1402H14.003L14.7129 13.0787L15.4253 15.1402H15.9583L17.0522 12H16.3903L15.6956 14.1574ZM18.1916 13.7861H19.3512V13.2177H18.1916V12.576H19.8741V12H17.5651V15.1326H19.9348V14.5667H18.1916V13.7861ZM20.6926 15.1326H21.3217V12H20.6926V15.1326ZM10.2337 14.4833L9.94823 15.1351H9.29896L10.6708 12H11.2316L12.6084 15.1351H11.9516L11.6813 14.4859L10.2337 14.4833ZM10.4712 13.9174H11.4286L10.9486 12.7958L10.4712 13.9174Z" fill="white"/>
<path d="M11.9995 8.00585C10.9404 8.00518 9.92485 7.58416 9.17596 6.83527C8.42706 6.08637 8.00604 5.07085 8.00537 4.01175H8.56874C8.56874 4.92164 8.93019 5.79426 9.57358 6.43765C10.217 7.08103 11.0896 7.44249 11.9995 7.44249C12.9094 7.44249 13.782 7.08103 14.4254 6.43765C15.0688 5.79426 15.4302 4.92164 15.4302 4.01175H15.9936C15.9929 5.07085 15.5719 6.08637 14.823 6.83527C14.0741 7.58416 13.0586 8.00518 11.9995 8.00585Z" fill="white"/>
</svg>
